<mxfile host="Electron" modified="2023-10-15T23:22:58.202Z" agent="Mozilla/5.0 (X11; Linux x86_64) AppleWebKit/537.36 (KHTML, like Gecko) draw.io/22.0.2 Chrome/114.0.5735.289 Electron/25.8.4 Safari/537.36" etag="2OBv43aT5GiAnEaICueU" version="22.0.2" type="device">
  <diagram name="Configuration Mode Flow Chart" id="fo18u6Ch1KVScq3Fo-Wy">
    <mxGraphModel dx="932" dy="1328" grid="1" gridSize="10" guides="1" tooltips="1" connect="1" arrows="1" fold="1" page="1" pageScale="1" pageWidth="800" pageHeight="350" background="#999999" math="0" shadow="0">
      <root>
        <object label="" description="Flow Chart of Configuration Mode based on popular WiFi Manager web interface." rev="1.0" id="0">
          <mxCell />
        </object>
        <object label="Title Block" id="1">
          <mxCell style="locked=1;" parent="0" />
        </object>
        <mxCell id="h7L3MlKvrl_dhOmhB3lf-10" value="Prepared with: draw.io v22.0.0" style="strokeWidth=1;shadow=0;dashed=0;align=center;html=1;shape=mxgraph.mockup.text.textBox;fontColor=#666666;align=left;fontSize=17;spacingLeft=4;spacingTop=-3;whiteSpace=wrap;strokeColor=#333333;mainText=;fillColor=none;fontFamily=Open Sans;movable=1;resizable=1;rotatable=1;deletable=1;editable=1;locked=0;connectable=1;" parent="1" vertex="1">
          <mxGeometry x="220" y="300" width="280" height="30" as="geometry" />
        </mxCell>
        <object label="&lt;div align=&quot;left&quot;&gt;Sheet %pagenumber%/%pagecount%&lt;/div&gt;" placeholders="1" id="h7L3MlKvrl_dhOmhB3lf-12">
          <mxCell style="strokeWidth=1;shadow=0;dashed=0;align=left;html=1;shape=mxgraph.mockup.text.textBox;fontColor=#666666;align=left;fontSize=17;spacingLeft=4;spacingTop=-3;whiteSpace=wrap;strokeColor=#333333;mainText=;fillColor=none;fontFamily=Open Sans;movable=1;resizable=1;rotatable=1;deletable=1;editable=1;locked=0;connectable=1;" parent="1" vertex="1">
            <mxGeometry x="60" y="300" width="160" height="30" as="geometry" />
          </mxCell>
        </object>
        <object label="Date: &lt;font style=&quot;font-size: 17px;&quot;&gt;%date{ddd mmm dd yyyy HH:MM:ss}%&lt;/font&gt;" placeholders="1" id="h7L3MlKvrl_dhOmhB3lf-13">
          <mxCell style="strokeWidth=1;shadow=0;dashed=0;align=center;html=1;shape=mxgraph.mockup.text.textBox;fontColor=#666666;align=left;fontSize=17;spacingLeft=4;spacingTop=-3;whiteSpace=wrap;strokeColor=#333333;mainText=;fillColor=none;fontFamily=Open Sans;movable=1;resizable=1;rotatable=1;deletable=1;editable=1;locked=0;connectable=1;" parent="1" vertex="1">
            <mxGeometry x="500" y="300" width="280" height="30" as="geometry" />
          </mxCell>
        </object>
        <object label="&lt;b&gt;Title: %page%&lt;/b&gt;" placeholders="1" id="h7L3MlKvrl_dhOmhB3lf-14">
          <mxCell style="strokeWidth=1;shadow=0;dashed=0;align=center;html=1;shape=mxgraph.mockup.text.textBox;fontColor=#666666;align=left;fontSize=17;spacingLeft=4;spacingTop=-3;whiteSpace=wrap;strokeColor=#333333;mainText=;fillColor=none;fontFamily=Open Sans;movable=1;resizable=1;rotatable=1;deletable=1;editable=1;locked=0;connectable=1;" parent="1" vertex="1">
            <mxGeometry x="60" y="240" width="720" height="30" as="geometry" />
          </mxCell>
        </object>
        <object label="Filename: %filename%" placeholders="1" id="h7L3MlKvrl_dhOmhB3lf-15">
          <mxCell style="strokeWidth=1;shadow=0;dashed=0;align=center;html=1;shape=mxgraph.mockup.text.textBox;fontColor=#666666;align=left;fontSize=17;spacingLeft=4;spacingTop=-3;whiteSpace=wrap;strokeColor=#333333;mainText=;fillColor=none;fontFamily=Open Sans;movable=1;resizable=1;rotatable=1;deletable=1;editable=1;locked=0;connectable=1;" parent="1" vertex="1">
            <mxGeometry x="60" y="270" width="480" height="30" as="geometry" />
          </mxCell>
        </object>
        <object label="&lt;div align=&quot;left&quot;&gt;%description%&lt;/div&gt;" placeholders="1" id="h7L3MlKvrl_dhOmhB3lf-16">
          <mxCell style="strokeWidth=1;shadow=0;dashed=0;html=1;shape=mxgraph.mockup.text.textBox;fontColor=#666666;align=left;verticalAlign=top;fontSize=12;spacingLeft=4;spacingTop=-3;whiteSpace=wrap;strokeColor=#333333;mainText=;fillColor=none;fontFamily=Open Sans;movable=1;resizable=1;rotatable=1;deletable=1;editable=1;locked=0;connectable=1;" parent="1" vertex="1">
            <mxGeometry x="60" y="200" width="720" height="40" as="geometry" />
          </mxCell>
        </object>
        <object label="&lt;b&gt;Rev: %rev%&lt;br&gt;&lt;/b&gt;" placeholders="1" id="EyKvBmyPNv_MzgSUc5b6-1">
          <mxCell style="strokeWidth=1;shadow=0;dashed=0;align=center;html=1;shape=mxgraph.mockup.text.textBox;fontColor=#666666;align=left;fontSize=17;spacingLeft=4;spacingTop=-3;whiteSpace=wrap;strokeColor=#333333;mainText=;fillColor=none;fontFamily=Open Sans;movable=1;resizable=1;rotatable=1;deletable=1;editable=1;locked=0;connectable=1;" parent="1" vertex="1">
            <mxGeometry x="540" y="270" width="240" height="30" as="geometry" />
          </mxCell>
        </object>
        <object label="Drawing Frame" id="2jkEU8j2_UPUL1MGRyPS-1">
          <mxCell style="locked=1;" parent="0" />
        </object>
        <mxCell id="2jkEU8j2_UPUL1MGRyPS-2" value="" style="rounded=0;whiteSpace=wrap;html=1;fillColor=none;strokeWidth=3;movable=1;resizable=1;rotatable=1;deletable=1;editable=1;locked=0;connectable=1;" parent="2jkEU8j2_UPUL1MGRyPS-1" vertex="1">
          <mxGeometry x="60" y="-550" width="720" height="880" as="geometry" />
        </mxCell>
        <object label="Document" id="NbdiYjX3MhI7OpqD2NvG-1">
          <mxCell parent="0" />
        </object>
        <mxCell id="zIGijBgtSS2Amp4av71g-1" value="Deep Sleep" style="strokeWidth=2;html=1;shape=mxgraph.flowchart.terminator;whiteSpace=wrap;fontFamily=Open Sans;fillColor=#F0F0F0;" vertex="1" parent="NbdiYjX3MhI7OpqD2NvG-1">
          <mxGeometry x="300" y="130" width="80" height="40" as="geometry" />
        </mxCell>
        <mxCell id="zIGijBgtSS2Amp4av71g-10" style="edgeStyle=orthogonalEdgeStyle;rounded=0;orthogonalLoop=1;jettySize=auto;html=1;fontFamily=Open Sans;" edge="1" parent="NbdiYjX3MhI7OpqD2NvG-1" source="zIGijBgtSS2Amp4av71g-2" target="zIGijBgtSS2Amp4av71g-6">
          <mxGeometry relative="1" as="geometry" />
        </mxCell>
        <mxCell id="zIGijBgtSS2Amp4av71g-2" value="S" style="strokeWidth=2;html=1;shape=mxgraph.flowchart.start_2;whiteSpace=wrap;fontFamily=Open Sans;fillColor=#F0F0F0;" vertex="1" parent="NbdiYjX3MhI7OpqD2NvG-1">
          <mxGeometry x="235" y="-520" width="50" height="50" as="geometry" />
        </mxCell>
        <mxCell id="zIGijBgtSS2Amp4av71g-20" style="edgeStyle=orthogonalEdgeStyle;rounded=0;orthogonalLoop=1;jettySize=auto;html=1;fontFamily=Open Sans;" edge="1" parent="NbdiYjX3MhI7OpqD2NvG-1" source="zIGijBgtSS2Amp4av71g-5" target="zIGijBgtSS2Amp4av71g-19">
          <mxGeometry relative="1" as="geometry" />
        </mxCell>
        <mxCell id="zIGijBgtSS2Amp4av71g-5" value="Start WiFiManager" style="verticalLabelPosition=middle;verticalAlign=middle;html=1;shape=process;whiteSpace=wrap;rounded=1;size=0.14;arcSize=6;labelPosition=center;align=center;fontFamily=Open Sans;fillColor=#F0F0F0;" vertex="1" parent="NbdiYjX3MhI7OpqD2NvG-1">
          <mxGeometry x="210" y="-350" width="100" height="60" as="geometry" />
        </mxCell>
        <mxCell id="zIGijBgtSS2Amp4av71g-13" style="edgeStyle=orthogonalEdgeStyle;rounded=0;orthogonalLoop=1;jettySize=auto;html=1;fontFamily=Open Sans;" edge="1" parent="NbdiYjX3MhI7OpqD2NvG-1" source="zIGijBgtSS2Amp4av71g-6" target="zIGijBgtSS2Amp4av71g-5">
          <mxGeometry relative="1" as="geometry" />
        </mxCell>
        <mxCell id="zIGijBgtSS2Amp4av71g-6" value="Load&lt;br&gt;Current&lt;br&gt;Values" style="shape=parallelogram;html=1;strokeWidth=2;perimeter=parallelogramPerimeter;whiteSpace=wrap;rounded=1;arcSize=12;size=0.23;fontFamily=Open Sans;fillColor=#F0F0F0;" vertex="1" parent="NbdiYjX3MhI7OpqD2NvG-1">
          <mxGeometry x="210" y="-440" width="100" height="60" as="geometry" />
        </mxCell>
        <mxCell id="zIGijBgtSS2Amp4av71g-8" style="edgeStyle=orthogonalEdgeStyle;rounded=0;orthogonalLoop=1;jettySize=auto;html=1;fontFamily=Open Sans;dashed=1;" edge="1" parent="NbdiYjX3MhI7OpqD2NvG-1" source="zIGijBgtSS2Amp4av71g-7" target="zIGijBgtSS2Amp4av71g-6">
          <mxGeometry relative="1" as="geometry" />
        </mxCell>
        <mxCell id="zIGijBgtSS2Amp4av71g-7" value="SPIFFS" style="shape=internalStorage;whiteSpace=wrap;html=1;dx=15;dy=15;rounded=1;arcSize=8;strokeWidth=2;fontFamily=Open Sans;fillColor=#F0F0F0;" vertex="1" parent="NbdiYjX3MhI7OpqD2NvG-1">
          <mxGeometry x="110" y="-445" width="70" height="70" as="geometry" />
        </mxCell>
        <mxCell id="zIGijBgtSS2Amp4av71g-51" style="edgeStyle=orthogonalEdgeStyle;rounded=0;orthogonalLoop=1;jettySize=auto;html=1;" edge="1" parent="NbdiYjX3MhI7OpqD2NvG-1" source="zIGijBgtSS2Amp4av71g-14" target="zIGijBgtSS2Amp4av71g-1">
          <mxGeometry relative="1" as="geometry" />
        </mxCell>
        <mxCell id="zIGijBgtSS2Amp4av71g-14" value="Inactivity Timeout" style="strokeWidth=2;html=1;shape=mxgraph.flowchart.delay;whiteSpace=wrap;fontFamily=Open Sans;fillColor=#F0F0F0;" vertex="1" parent="NbdiYjX3MhI7OpqD2NvG-1">
          <mxGeometry x="290" y="-220" width="100" height="60" as="geometry" />
        </mxCell>
        <mxCell id="zIGijBgtSS2Amp4av71g-22" style="edgeStyle=orthogonalEdgeStyle;rounded=0;orthogonalLoop=1;jettySize=auto;html=1;fontFamily=Open Sans;" edge="1" parent="NbdiYjX3MhI7OpqD2NvG-1" source="zIGijBgtSS2Amp4av71g-19" target="zIGijBgtSS2Amp4av71g-21">
          <mxGeometry relative="1" as="geometry" />
        </mxCell>
        <mxCell id="zIGijBgtSS2Amp4av71g-48" value="Note: Inactivity Timer&lt;br&gt;Monitors the &lt;br&gt;Entire Session" style="edgeStyle=orthogonalEdgeStyle;rounded=0;orthogonalLoop=1;jettySize=auto;html=1;dashed=1;fontFamily=Open Sans;curved=1;" edge="1" parent="NbdiYjX3MhI7OpqD2NvG-1" source="zIGijBgtSS2Amp4av71g-19" target="zIGijBgtSS2Amp4av71g-14">
          <mxGeometry x="-0.5329" y="-20" relative="1" as="geometry">
            <mxPoint x="20" y="20" as="offset" />
          </mxGeometry>
        </mxCell>
        <mxCell id="zIGijBgtSS2Amp4av71g-19" value="Handle Incoming Connections" style="verticalLabelPosition=middle;verticalAlign=middle;html=1;shape=process;whiteSpace=wrap;rounded=1;size=0.14;arcSize=6;labelPosition=center;align=center;fontFamily=Open Sans;fillColor=#F0F0F0;" vertex="1" parent="NbdiYjX3MhI7OpqD2NvG-1">
          <mxGeometry x="370" y="-350" width="100" height="60" as="geometry" />
        </mxCell>
        <mxCell id="zIGijBgtSS2Amp4av71g-24" style="edgeStyle=orthogonalEdgeStyle;rounded=0;orthogonalLoop=1;jettySize=auto;html=1;fontFamily=Open Sans;exitX=0.5;exitY=1;exitDx=0;exitDy=0;exitPerimeter=0;" edge="1" parent="NbdiYjX3MhI7OpqD2NvG-1" source="zIGijBgtSS2Amp4av71g-30" target="zIGijBgtSS2Amp4av71g-46">
          <mxGeometry relative="1" as="geometry">
            <mxPoint x="550.0285714285715" y="-140" as="targetPoint" />
          </mxGeometry>
        </mxCell>
        <mxCell id="zIGijBgtSS2Amp4av71g-29" value="Configure with Scan" style="edgeLabel;html=1;align=center;verticalAlign=middle;resizable=0;points=[];fontFamily=Open Sans;" vertex="1" connectable="0" parent="zIGijBgtSS2Amp4av71g-24">
          <mxGeometry x="0.232" y="1" relative="1" as="geometry">
            <mxPoint x="-1" y="-4" as="offset" />
          </mxGeometry>
        </mxCell>
        <mxCell id="zIGijBgtSS2Amp4av71g-27" style="edgeStyle=orthogonalEdgeStyle;rounded=0;orthogonalLoop=1;jettySize=auto;html=1;fontFamily=Open Sans;exitX=1;exitY=0.5;exitDx=0;exitDy=0;exitPerimeter=0;" edge="1" parent="NbdiYjX3MhI7OpqD2NvG-1" source="zIGijBgtSS2Amp4av71g-30" target="zIGijBgtSS2Amp4av71g-25">
          <mxGeometry relative="1" as="geometry" />
        </mxCell>
        <mxCell id="zIGijBgtSS2Amp4av71g-28" value="Configure" style="edgeLabel;html=1;align=center;verticalAlign=middle;resizable=0;points=[];fontFamily=Open Sans;" vertex="1" connectable="0" parent="zIGijBgtSS2Amp4av71g-27">
          <mxGeometry x="-0.4785" y="-2" relative="1" as="geometry">
            <mxPoint as="offset" />
          </mxGeometry>
        </mxCell>
        <mxCell id="zIGijBgtSS2Amp4av71g-33" value="Submit" style="edgeStyle=orthogonalEdgeStyle;rounded=0;orthogonalLoop=1;jettySize=auto;html=1;fontFamily=Open Sans;" edge="1" parent="NbdiYjX3MhI7OpqD2NvG-1" source="zIGijBgtSS2Amp4av71g-21" target="zIGijBgtSS2Amp4av71g-30">
          <mxGeometry x="-0.2" relative="1" as="geometry">
            <mxPoint as="offset" />
          </mxGeometry>
        </mxCell>
        <mxCell id="zIGijBgtSS2Amp4av71g-21" value="[http]&lt;br&gt;Display Portal" style="strokeWidth=2;html=1;shape=mxgraph.flowchart.display;whiteSpace=wrap;fontFamily=Open Sans;fillColor=#F0F0F0;" vertex="1" parent="NbdiYjX3MhI7OpqD2NvG-1">
          <mxGeometry x="500" y="-350" width="100" height="60" as="geometry" />
        </mxCell>
        <mxCell id="zIGijBgtSS2Amp4av71g-26" style="edgeStyle=orthogonalEdgeStyle;rounded=0;orthogonalLoop=1;jettySize=auto;html=1;fontFamily=Open Sans;" edge="1" parent="NbdiYjX3MhI7OpqD2NvG-1" source="zIGijBgtSS2Amp4av71g-46" target="zIGijBgtSS2Amp4av71g-25">
          <mxGeometry relative="1" as="geometry">
            <mxPoint x="600" y="-115" as="sourcePoint" />
          </mxGeometry>
        </mxCell>
        <mxCell id="zIGijBgtSS2Amp4av71g-36" value="Submit" style="edgeStyle=orthogonalEdgeStyle;rounded=0;orthogonalLoop=1;jettySize=auto;html=1;fontFamily=Open Sans;" edge="1" parent="NbdiYjX3MhI7OpqD2NvG-1" source="zIGijBgtSS2Amp4av71g-25" target="zIGijBgtSS2Amp4av71g-31">
          <mxGeometry x="0.1111" relative="1" as="geometry">
            <mxPoint as="offset" />
          </mxGeometry>
        </mxCell>
        <mxCell id="zIGijBgtSS2Amp4av71g-25" value="&lt;font style=&quot;font-size: 10px;&quot;&gt;[http]&lt;br&gt;Display&lt;br&gt;Configuration&lt;br&gt;Page&lt;/font&gt;" style="strokeWidth=2;html=1;shape=mxgraph.flowchart.display;whiteSpace=wrap;fontFamily=Open Sans;fillColor=#F0F0F0;" vertex="1" parent="NbdiYjX3MhI7OpqD2NvG-1">
          <mxGeometry x="630" y="-135" width="100" height="60" as="geometry" />
        </mxCell>
        <mxCell id="zIGijBgtSS2Amp4av71g-30" value="Selection" style="strokeWidth=2;html=1;shape=mxgraph.flowchart.decision;whiteSpace=wrap;fillColor=#F0F0F0;fontFamily=Open Sans;" vertex="1" parent="NbdiYjX3MhI7OpqD2NvG-1">
          <mxGeometry x="515" y="-240" width="70" height="70" as="geometry" />
        </mxCell>
        <mxCell id="zIGijBgtSS2Amp4av71g-37" style="edgeStyle=orthogonalEdgeStyle;rounded=0;orthogonalLoop=1;jettySize=auto;html=1;fontFamily=Open Sans;curved=1;dashed=1;" edge="1" parent="NbdiYjX3MhI7OpqD2NvG-1" source="zIGijBgtSS2Amp4av71g-31" target="zIGijBgtSS2Amp4av71g-7">
          <mxGeometry relative="1" as="geometry" />
        </mxCell>
        <mxCell id="zIGijBgtSS2Amp4av71g-38" style="edgeStyle=orthogonalEdgeStyle;rounded=0;orthogonalLoop=1;jettySize=auto;html=1;fontFamily=Open Sans;" edge="1" parent="NbdiYjX3MhI7OpqD2NvG-1" source="zIGijBgtSS2Amp4av71g-31" target="zIGijBgtSS2Amp4av71g-35">
          <mxGeometry relative="1" as="geometry" />
        </mxCell>
        <mxCell id="zIGijBgtSS2Amp4av71g-31" value="&lt;font style=&quot;font-size: 10px;&quot;&gt;Store&lt;br&gt;Modified Configuration&lt;br&gt;Values&lt;/font&gt;" style="shape=parallelogram;html=1;strokeWidth=2;perimeter=parallelogramPerimeter;whiteSpace=wrap;rounded=1;arcSize=12;size=0.23;fontFamily=Open Sans;fillColor=#F0F0F0;" vertex="1" parent="NbdiYjX3MhI7OpqD2NvG-1">
          <mxGeometry x="630" y="-40" width="100" height="60" as="geometry" />
        </mxCell>
        <mxCell id="zIGijBgtSS2Amp4av71g-34" value="Restart" style="edgeStyle=orthogonalEdgeStyle;rounded=0;orthogonalLoop=1;jettySize=auto;html=1;entryX=0.5;entryY=0;entryDx=0;entryDy=0;entryPerimeter=0;fontFamily=Open Sans;curved=1;exitX=0;exitY=0.5;exitDx=0;exitDy=0;exitPerimeter=0;" edge="1" parent="NbdiYjX3MhI7OpqD2NvG-1" source="zIGijBgtSS2Amp4av71g-30" target="zIGijBgtSS2Amp4av71g-1">
          <mxGeometry x="-0.8679" y="5" relative="1" as="geometry">
            <mxPoint as="offset" />
          </mxGeometry>
        </mxCell>
        <mxCell id="zIGijBgtSS2Amp4av71g-39" value="No" style="edgeStyle=orthogonalEdgeStyle;rounded=0;orthogonalLoop=1;jettySize=auto;html=1;entryX=1;entryY=0.5;entryDx=0;entryDy=0;entryPerimeter=0;exitX=0.5;exitY=1;exitDx=0;exitDy=0;exitPerimeter=0;fontFamily=Open Sans;" edge="1" parent="NbdiYjX3MhI7OpqD2NvG-1" source="zIGijBgtSS2Amp4av71g-35" target="zIGijBgtSS2Amp4av71g-1">
          <mxGeometry x="-0.8824" relative="1" as="geometry">
            <mxPoint as="offset" />
          </mxGeometry>
        </mxCell>
        <mxCell id="zIGijBgtSS2Amp4av71g-41" style="edgeStyle=orthogonalEdgeStyle;rounded=0;orthogonalLoop=1;jettySize=auto;html=1;fontFamily=Open Sans;" edge="1" parent="NbdiYjX3MhI7OpqD2NvG-1" source="zIGijBgtSS2Amp4av71g-35" target="zIGijBgtSS2Amp4av71g-40">
          <mxGeometry relative="1" as="geometry" />
        </mxCell>
        <mxCell id="zIGijBgtSS2Amp4av71g-49" value="Yes" style="edgeLabel;html=1;align=center;verticalAlign=middle;resizable=0;points=[];fontFamily=Open Sans;" vertex="1" connectable="0" parent="zIGijBgtSS2Amp4av71g-41">
          <mxGeometry x="0.0234" y="1" relative="1" as="geometry">
            <mxPoint x="5" y="-1" as="offset" />
          </mxGeometry>
        </mxCell>
        <mxCell id="zIGijBgtSS2Amp4av71g-35" value="&lt;font style=&quot;font-size: 10px;&quot;&gt;WiFi&lt;br&gt;Credentials&lt;br&gt;Updated?&lt;br&gt;&lt;/font&gt;" style="strokeWidth=2;html=1;shape=mxgraph.flowchart.decision;whiteSpace=wrap;fillColor=#F0F0F0;fontFamily=Open Sans;verticalAlign=top;" vertex="1" parent="NbdiYjX3MhI7OpqD2NvG-1">
          <mxGeometry x="645" y="40" width="70" height="70" as="geometry" />
        </mxCell>
        <mxCell id="zIGijBgtSS2Amp4av71g-43" style="edgeStyle=orthogonalEdgeStyle;rounded=0;orthogonalLoop=1;jettySize=auto;html=1;fontFamily=Open Sans;" edge="1" parent="NbdiYjX3MhI7OpqD2NvG-1" source="zIGijBgtSS2Amp4av71g-40" target="zIGijBgtSS2Amp4av71g-42">
          <mxGeometry relative="1" as="geometry" />
        </mxCell>
        <mxCell id="zIGijBgtSS2Amp4av71g-40" value="Test Connection to AP" style="verticalLabelPosition=middle;verticalAlign=middle;html=1;shape=process;whiteSpace=wrap;rounded=1;size=0.14;arcSize=6;labelPosition=center;align=center;fontFamily=Open Sans;fillColor=#F0F0F0;" vertex="1" parent="NbdiYjX3MhI7OpqD2NvG-1">
          <mxGeometry x="500" y="45" width="100" height="60" as="geometry" />
        </mxCell>
        <mxCell id="zIGijBgtSS2Amp4av71g-42" value="&lt;font style=&quot;font-size: 10px;&quot;&gt;Success?&lt;br&gt;&lt;/font&gt;" style="strokeWidth=2;html=1;shape=mxgraph.flowchart.decision;whiteSpace=wrap;fillColor=#F0F0F0;fontFamily=Open Sans;verticalAlign=middle;" vertex="1" parent="NbdiYjX3MhI7OpqD2NvG-1">
          <mxGeometry x="400" y="40" width="70" height="70" as="geometry" />
        </mxCell>
        <mxCell id="zIGijBgtSS2Amp4av71g-44" value="Yes" style="edgeStyle=orthogonalEdgeStyle;rounded=0;orthogonalLoop=1;jettySize=auto;html=1;entryX=1;entryY=0.5;entryDx=0;entryDy=0;entryPerimeter=0;exitX=0.5;exitY=1;exitDx=0;exitDy=0;exitPerimeter=0;curved=1;fontFamily=Open Sans;" edge="1" parent="NbdiYjX3MhI7OpqD2NvG-1" source="zIGijBgtSS2Amp4av71g-42" target="zIGijBgtSS2Amp4av71g-1">
          <mxGeometry x="-0.5792" y="-5" relative="1" as="geometry">
            <mxPoint as="offset" />
          </mxGeometry>
        </mxCell>
        <mxCell id="zIGijBgtSS2Amp4av71g-45" value="No" style="edgeStyle=orthogonalEdgeStyle;rounded=0;orthogonalLoop=1;jettySize=auto;html=1;entryX=0;entryY=0.5;entryDx=0;entryDy=0;entryPerimeter=0;exitX=0.5;exitY=0;exitDx=0;exitDy=0;exitPerimeter=0;curved=1;fontFamily=Open Sans;" edge="1" parent="NbdiYjX3MhI7OpqD2NvG-1" source="zIGijBgtSS2Amp4av71g-42" target="zIGijBgtSS2Amp4av71g-25">
          <mxGeometry x="-0.8461" y="-5" relative="1" as="geometry">
            <Array as="points">
              <mxPoint x="435" y="-30" />
              <mxPoint x="610" y="-30" />
              <mxPoint x="610" y="-105" />
            </Array>
            <mxPoint as="offset" />
          </mxGeometry>
        </mxCell>
        <mxCell id="zIGijBgtSS2Amp4av71g-46" value="Scan Nearby APs" style="verticalLabelPosition=middle;verticalAlign=middle;html=1;shape=process;whiteSpace=wrap;rounded=1;size=0.14;arcSize=6;labelPosition=center;align=center;fontFamily=Open Sans;fillColor=#F0F0F0;" vertex="1" parent="NbdiYjX3MhI7OpqD2NvG-1">
          <mxGeometry x="500" y="-135" width="100" height="60" as="geometry" />
        </mxCell>
      </root>
    </mxGraphModel>
  </diagram>
</mxfile>
